<svg xmlns="http://www.w3.org/2000/svg" viewBox="-1 -1 715.813 713.938" style="display:inline">
<defs>
  <radialGradient id="innerGradient" cx="50%" cy="50%" r="50%" fx="50%" fy="50%">
    <stop offset="0%" stop-color="#ffffff" stop-opacity="1">
      <animate attributeName="stop-opacity" values="1;0.4;1" dur="2.5s" repeatCount="indefinite"/>
      <animate attributeName="stop-color" values="#ffffff;#c8e8ff;#ffffff" dur="2.5s" repeatCount="indefinite"/>
    </stop>
    <stop offset="15%" stop-color="#7ec8e3" stop-opacity="1">
      <animate attributeName="offset" values="0.15;0.25;0.15" dur="2.5s" repeatCount="indefinite"/>
    </stop>
    <stop offset="40%" stop-color="#2a7f8f" stop-opacity="1">
      <animate attributeName="offset" values="0.40;0.55;0.40" dur="2.5s" repeatCount="indefinite"/>
    </stop>
    <stop offset="75%" stop-color="#3988bc" stop-opacity="0.9">
      <animate attributeName="offset" values="0.75;0.85;0.75" dur="2.5s" repeatCount="indefinite"/>
    </stop>
    <stop offset="100%" stop-color="#0d1f4a" stop-opacity="0.5"/>
  </radialGradient>
</defs>
<circle cx="357" cy="358" r="306.5" fill="none" stroke="none" stroke-width="85"/><g style="display:inline"><g style="display:inline"><path style="fill:none;stroke:#fff;stroke-width:1px;stroke-linecap:butt;stroke-linejoin:miter;stroke-opacity:0.5" d="m202.536 212.42 27.274 42.427" transform="rotate(55.545 476.771 405.268)"/><path style="fill:none;stroke:#fff;stroke-width:1px;stroke-linecap:butt;stroke-linejoin:miter;stroke-opacity:0.5;display:inline" d="m247.136 188.997 20.106 46.256m27.652-62.205 12.42 48.884m37.468-56.975 4.38 50.246m45.998-50.206-3.747 50.297m53.746-42.096-11.823 49.031" transform="rotate(55.545 476.771 405.268)"/></g><path d="M677.189 412.22 627.9 422.924" style="fill:none;stroke:#fff;stroke-width:1px;stroke-linecap:butt;stroke-linejoin:miter;stroke-opacity:0.5;display:inline" transform="translate(-12.75 -118.188)"/><g style="display:inline"><path style="fill:none;stroke:#fff;stroke-width:1px;stroke-linecap:butt;stroke-linejoin:miter;stroke-opacity:0.5" d="m202.536 212.42 27.274 42.427" transform="rotate(146.834 381.136 415.784)"/><path style="fill:none;stroke:#fff;stroke-width:1px;stroke-linecap:butt;stroke-linejoin:miter;stroke-opacity:0.5;display:inline" d="m247.136 188.997 20.106 46.256m27.652-62.205 12.42 48.884m37.468-56.975 4.38 50.246m45.998-50.206-3.747 50.297m53.746-42.096-11.823 49.031" transform="rotate(146.834 381.136 415.784)"/></g><g style="display:inline"><path style="fill:none;stroke:#fff;stroke-width:1px;stroke-linecap:butt;stroke-linejoin:miter;stroke-opacity:0.5" d="m202.536 212.42 27.274 42.427" transform="rotate(202.205 351.82 419.007)"/><path style="fill:none;stroke:#fff;stroke-width:1px;stroke-linecap:butt;stroke-linejoin:miter;stroke-opacity:0.5;display:inline" d="m247.136 188.997 20.106 46.256m27.652-62.205 12.42 48.884m37.468-56.975 4.38 50.246m45.998-50.206-3.747 50.297m53.746-42.096-11.823 49.031" transform="rotate(202.205 351.82 419.007)"/></g><path style="fill:none;stroke:#fff;stroke-width:1px;stroke-linecap:butt;stroke-linejoin:miter;stroke-opacity:0.5" d="m273.929 141.157 12.142 22.277 2.59 9.642-2.59-9.642-.49-25.358" transform="rotate(-80.143 293.097 425.054)"/><path style="fill:none;stroke:#fff;stroke-width:1px;stroke-linecap:butt;stroke-linejoin:miter;stroke-opacity:0.5;display:inline" d="m262.296 144.698 12.912 21.84 2.924 9.547-2.924-9.547-1.374-25.325m-23.054 7.434 13.665 21.377 3.255 9.439-3.255-9.44-2.257-25.26m23.492-6.741 11.36 22.687 2.252 9.727-2.252-9.727.393-25.359m.177-.066 10.556 23.07 1.91 9.8-1.91-9.8 1.282-25.329m.054-.038 9.75 23.424 1.567 9.86-1.568-9.86 2.16-25.27m.24-.062 8.918 23.752 1.22 9.91-1.22-9.91 3.05-25.178m.12-.04 8.084 24.049.873 9.946-.873-9.946 3.926-25.057m-106.291 24.37 14.4 20.89 3.58 9.32-3.58-9.32-3.133-25.168m-22.442 9.003 15.117 20.375 3.902 9.19-3.902-9.19-4.006-25.044m-22.156 9.797 15.82 19.836 4.22 9.048-4.22-9.048-4.878-24.889m-21.882 10.607 16.506 19.268 4.537 8.894-4.537-8.894-5.749-24.702m-21.405 11.318 17.167 18.68 4.844 8.732-4.844-8.731-6.606-24.487" transform="rotate(-80.143 293.097 425.054)"/><path style="fill:none;stroke:#fff;stroke-width:1px;stroke-linecap:butt;stroke-linejoin:miter;stroke-opacity:0.5;display:inline" d="m185.333 180.443 17.801 18.078 5.142 8.558-5.142-8.558-7.446-24.245m-20.565 12.77 18.42 17.447 5.437 8.375-5.437-8.375-8.286-23.97" transform="rotate(-80.143 293.097 425.054)"/><path style="fill:none;stroke:#fff;stroke-width:1px;stroke-linecap:butt;stroke-linejoin:miter;stroke-opacity:0.5" d="m273.929 141.157 12.142 22.277 2.59 9.642-2.59-9.642-.49-25.358" transform="rotate(239.78 329.377 421.14)"/><path style="fill:none;stroke:#fff;stroke-width:1px;stroke-linecap:butt;stroke-linejoin:miter;stroke-opacity:0.5;display:inline" d="m262.296 144.698 12.912 21.84 2.924 9.547-2.924-9.547-1.374-25.325m-23.054 7.434 13.665 21.377 3.255 9.439-3.255-9.44-2.257-25.26m23.492-6.741 11.36 22.687 2.252 9.727-2.252-9.727.393-25.359m.177-.066 10.556 23.07 1.91 9.8-1.91-9.8 1.282-25.329m.054-.038 9.75 23.424 1.567 9.86-1.568-9.86 2.16-25.27m.24-.062 8.918 23.752 1.22 9.91-1.22-9.91 3.05-25.178m.12-.04 8.084 24.049.873 9.946-.873-9.946 3.926-25.057m-106.291 24.37 14.4 20.89 3.58 9.32-3.58-9.32-3.133-25.168m-22.442 9.003 15.117 20.375 3.902 9.19-3.902-9.19-4.006-25.044m-22.156 9.797 15.82 19.836 4.22 9.048-4.22-9.048-4.878-24.889m-21.882 10.607 16.506 19.268 4.537 8.894-4.537-8.894-5.749-24.702m-21.405 11.318 17.167 18.68 4.844 8.732-4.844-8.731-6.606-24.487" transform="rotate(239.78 329.377 421.14)"/><path style="fill:none;stroke:#fff;stroke-width:1px;stroke-linecap:butt;stroke-linejoin:miter;stroke-opacity:0.5;display:inline" d="m185.333 180.443 17.801 18.078 5.142 8.558-5.142-8.558-7.446-24.245m-20.565 12.77 18.42 17.447 5.437 8.375-5.437-8.375-8.286-23.97" transform="rotate(239.78 329.377 421.14)"/><path d="m76.38 675.114 6.883-10.003 7.62 13.437.959-1.902s15.386 29.786 32.972 48.268l-4.012 2.337c-16.912-16.084-38.965-43.123-44.422-52.137z" style="fill:none;stroke:#fff;stroke-width:1px;stroke-linecap:butt;stroke-linejoin:miter;stroke-opacity:0.5" transform="translate(-12.75 -118.188)"/><path d="m228.571 795.587 4.936-24.887 4.185-9.065-4.185 9.065-15.859 19.793" style="fill:none;stroke:#fff;stroke-width:1px;stroke-linecap:butt;stroke-linejoin:miter;stroke-opacity:0.5;display:inline" transform="translate(-12.75 -118.188)"/><path d="M169.271 761.945c-15.262-10.58-30.251-22.968-44.544-37.126" style="fill:none;stroke:#fff;stroke-width:1px;stroke-linecap:butt;stroke-linejoin:miter;stroke-opacity:0.5" transform="translate(-12.75 -118.188)"/><path style="fill:none;stroke:#fff;stroke-width:1px;stroke-linecap:butt;stroke-linejoin:miter;stroke-opacity:0.5" d="m273.929 141.157 12.142 22.277 2.59 9.642-2.59-9.642-.49-25.358" transform="rotate(199.805 353.028 418.589)"/><path style="fill:none;stroke:#fff;stroke-width:1px;stroke-linecap:butt;stroke-linejoin:miter;stroke-opacity:0.5;display:inline" d="m262.296 144.698 12.912 21.84 2.924 9.547-2.924-9.547-1.374-25.325m-23.054 7.434 13.665 21.377 3.255 9.439-3.255-9.44-2.257-25.26m23.492-6.741 11.36 22.687 2.252 9.727-2.252-9.727.393-25.359m.177-.066 10.556 23.07 1.91 9.8-1.91-9.8 1.282-25.329m.054-.038 9.75 23.424 1.567 9.86-1.568-9.86 2.16-25.27m.24-.062 8.918 23.752 1.22 9.91-1.22-9.91 3.05-25.178m.12-.04 8.084 24.049.873 9.946-.873-9.946 3.926-25.057m-106.291 24.37 14.4 20.89 3.58 9.32-3.58-9.32-3.133-25.168m-22.442 9.003 15.117 20.375 3.902 9.19-3.902-9.19-4.006-25.044m-22.156 9.797 15.82 19.836 4.22 9.048-4.22-9.048-4.878-24.889m-21.882 10.607 16.506 19.268 4.537 8.894-4.537-8.894-5.749-24.702m-21.405 11.318 17.167 18.68 4.844 8.732-4.844-8.731-6.606-24.487" transform="rotate(199.805 353.028 418.589)"/><path style="fill:none;stroke:#fff;stroke-width:1px;stroke-linecap:butt;stroke-linejoin:miter;stroke-opacity:0.5;display:inline" d="m185.333 180.443 17.801 18.078 5.142 8.558-5.142-8.558-7.446-24.245m-20.565 12.77 18.42 17.447 5.437 8.375-5.437-8.375-8.286-23.97" transform="rotate(199.805 353.028 418.589)"/><path d="m269.366 819.755-40.658-14.641 30.227-38.083 9.744 3.51z" style="fill:none;stroke:#fff;stroke-width:1px;stroke-linecap:butt;stroke-linejoin:miter;stroke-opacity:0.5" transform="translate(-12.75 -118.188)"/><path d="m262.5 815.63-26.545-9.56 19.743-24.885 6.362 2.29z" style="fill:none;stroke:#fff;stroke-width:1px;stroke-linecap:butt;stroke-linejoin:miter;stroke-opacity:0.5;display:inline" transform="translate(-12.75 -118.188)"/><path d="m272.478 817.175-1.151-12.087 14.472 5.402-.487-2.074s30.927 12.94 56.277 15.806l-1.573 4.369c-23.294-1.461-57.565-8.014-67.538-11.416z" style="fill:none;stroke:#fff;stroke-width:1px;stroke-linecap:butt;stroke-linejoin:miter;stroke-opacity:0.5" transform="translate(-12.75 -118.188)"/><path d="m226.823 800.734 8.593-8.578-14.593-5.066 1.697-1.287s-32.077-9.748-53.433-23.703l-1.573 4.369c18.876 13.725 49.457 30.527 59.309 34.265z" style="fill:none;stroke:#fff;stroke-width:1px;stroke-linecap:butt;stroke-linejoin:miter;stroke-opacity:0.5;display:inline" transform="translate(-12.75 -118.188)"/><path d="M466.504 811.722 454.3 789.48l-2.617-9.636 2.617 9.636.562 25.356" style="fill:none;stroke:#fff;stroke-width:1px;stroke-linecap:butt;stroke-linejoin:miter;stroke-opacity:0.5;display:inline" transform="translate(-12.75 -118.188)"/><path d="M399.448 824.039c-18.493 1.697-37.938 1.834-57.987.166" style="fill:none;stroke:#fff;stroke-width:1px;stroke-linecap:butt;stroke-linejoin:miter;stroke-opacity:0.5" transform="translate(-12.75 -118.188)"/><path d="m659.363 670.994-23.651-9.184-8.2-5.697 8.2 5.697 16.736 19.055m64.269-240.154-24.053 8.071-9.947.868 9.947-.868 25.054 3.94m-104.916-226.36-13.266 21.627-7.07 7.05 7.07-7.05 21.742-13.06" style="fill:none;stroke:#fff;stroke-width:1px;stroke-linecap:butt;stroke-linejoin:miter;stroke-opacity:0.5;display:inline" transform="translate(-12.75 -118.188)"/><path style="fill:none;stroke:#fff;stroke-width:1px;stroke-linecap:butt;stroke-linejoin:miter;stroke-opacity:0.5" d="m273.929 141.157 12.142 22.277 2.59 9.642-2.59-9.642-.49-25.358" transform="rotate(80.085 433.663 409.89)"/><path style="fill:none;stroke:#fff;stroke-width:1px;stroke-linecap:butt;stroke-linejoin:miter;stroke-opacity:0.5;display:inline" d="m262.296 144.698 12.912 21.84 2.924 9.547-2.924-9.547-1.374-25.325m-23.054 7.434 13.665 21.377 3.255 9.439-3.255-9.44-2.257-25.26m23.492-6.741 11.36 22.687 2.252 9.727-2.252-9.727.393-25.359m.177-.066 10.556 23.07 1.91 9.8-1.91-9.8 1.282-25.329m.054-.038 9.75 23.424 1.567 9.86-1.568-9.86 2.16-25.27m.24-.062 8.918 23.752 1.22 9.91-1.22-9.91 3.05-25.178m.12-.04 8.084 24.049.873 9.946-.873-9.946 3.926-25.057m-106.291 24.37 14.4 20.89 3.58 9.32-3.58-9.32-3.133-25.168m-22.442 9.003 15.117 20.375 3.902 9.19-3.902-9.19-4.006-25.044m-22.156 9.797 15.82 19.836 4.22 9.048-4.22-9.048-4.878-24.889m-21.882 10.607 16.506 19.268 4.537 8.894-4.537-8.894-5.749-24.702m-21.405 11.318 17.167 18.68 4.844 8.732-4.844-8.731-6.606-24.487" transform="rotate(80.085 433.663 409.89)"/><path style="fill:none;stroke:#fff;stroke-width:1px;stroke-linecap:butt;stroke-linejoin:miter;stroke-opacity:0.5;display:inline" d="m185.333 180.443 17.801 18.078 5.142 8.558-5.142-8.558-7.446-24.245m-20.565 12.77 18.42 17.447 5.437 8.375-5.437-8.375-8.286-23.97" transform="rotate(80.085 433.663 409.89)"/><path d="M370 740.576c-145.764 0-263.929-118.164-263.929-263.928S224.236 212.719 370 212.719c145.704 0 263.844 118.071 263.886 263.882.043 145.81-118.122 263.975-263.886 263.975z" style="opacity:.90080004;color:#fff;fill:url(#innerGradient);stroke:#fff;stroke-width:3.00719357;stroke-miterlimit:4;stroke-opacity:0.5;marker:none;visibility:visible;display:inline;overflow:visible" transform="translate(-11.865 -117.048)scale(.9976)"/><g style="display:inline"><path style="fill:none;stroke:#fff;stroke-width:1px;stroke-linecap:butt;stroke-linejoin:miter;stroke-opacity:0.5" d="m202.536 212.42 27.274 42.427" transform="rotate(-55.566 251.185 429.499)"/><path style="fill:none;stroke:#fff;stroke-width:1px;stroke-linecap:butt;stroke-linejoin:miter;stroke-opacity:0.5;display:inline" d="m247.136 188.997 20.106 46.256m27.652-62.205 12.42 48.884m37.468-56.975 4.38 50.246m45.998-50.206-3.747 50.297m53.746-42.096-11.823 49.031" transform="rotate(-55.566 251.185 429.499)"/></g><path d="M370.004 790.663c-173.426 0-314.016-140.59-314.016-314.015 0-173.426 140.59-314.016 314.016-314.016 173.355 0 313.914 140.478 313.965 313.96S543.43 790.663 370.004 790.663z" style="opacity:.90080004;color:#fff;fill:none;stroke:#fff;stroke-width:2;stroke-miterlimit:4;stroke-opacity:0.5;stroke-dasharray:none;marker:none;visibility:visible;display:inline;overflow:visible" transform="translate(-12.75 -118.188)"/><path d="M370.005 800.664c-178.95 0-324.017-145.067-324.017-324.016S191.056 152.63 370.005 152.63c178.875 0 323.912 144.952 323.964 323.96.052 179.006-145.015 324.073-323.964 324.073z" style="opacity:.90080004;color:#fff;fill:none;stroke:#fff;stroke-width:1;stroke-miterlimit:4;stroke-opacity:0.5;stroke-dasharray:none;marker:none;visibility:visible;display:inline;overflow:visible" transform="translate(-12.75 -118.188)"/><path style="fill:none;stroke:#fff;stroke-width:1px;stroke-linecap:butt;stroke-linejoin:miter;stroke-opacity:0.5" d="m273.929 141.157 12.142 22.277 2.59 9.642-2.59-9.642-.49-25.358" transform="translate(-12.75 -118.188)"/><path style="fill:none;stroke:#fff;stroke-width:1px;stroke-linecap:butt;stroke-linejoin:miter;stroke-opacity:0.5;display:inline" d="m262.296 144.698 12.912 21.84 2.924 9.547-2.924-9.547-1.374-25.325m-23.054 7.434 13.665 21.377 3.255 9.439-3.255-9.44-2.257-25.26m23.492-6.741 11.36 22.687 2.252 9.727-2.252-9.727.393-25.359m.177-.066 10.556 23.07 1.91 9.8-1.91-9.8 1.282-25.329m.054-.038 9.75 23.424 1.567 9.86-1.568-9.86 2.16-25.27m.24-.062 8.918 23.752 1.22 9.91-1.22-9.91 3.05-25.178m.12-.04 8.084 24.049.873 9.946-.873-9.946 3.926-25.057m-106.291 24.37 14.4 20.89 3.58 9.32-3.58-9.32-3.133-25.168m-22.442 9.003 15.117 20.375 3.902 9.19-3.902-9.19-4.006-25.044m-22.156 9.797 15.82 19.836 4.22 9.048-4.22-9.048-4.878-24.889m-21.882 10.607 16.506 19.268 4.537 8.894-4.537-8.894-5.749-24.702m-21.405 11.318 17.167 18.68 4.844 8.732-4.844-8.731-6.606-24.487" transform="translate(-12.75 -118.188)"/><path style="fill:none;stroke:#fff;stroke-width:1px;stroke-linecap:butt;stroke-linejoin:miter;stroke-opacity:0.5;display:inline" d="m185.333 180.443 17.801 18.078 5.142 8.558-5.142-8.558-7.446-24.245m-20.565 12.77 18.42 17.447 5.437 8.375-5.437-8.375-8.286-23.97" transform="translate(-12.75 -118.188)"/><path d="M347.857 119.684h43.214l-15.535 46.071h-10.357z" style="fill:none;stroke:#fff;stroke-width:1px;stroke-linecap:butt;stroke-linejoin:miter;stroke-opacity:0.5" transform="translate(-12.75 -118.188)"/><path d="M355.714 121.24h28.215l-10.144 30.102h-6.762z" style="fill:none;stroke:#fff;stroke-width:1px;stroke-linecap:butt;stroke-linejoin:miter;stroke-opacity:0.5;display:inline" transform="translate(-12.75 -118.188)"/><path d="m345.804 123.166 5.178 10.982-15.446-.179 1.16 1.786s-33.482-1.696-58.303 4.196v-4.642c22.41-6.518 56.875-11.965 67.41-12.143z" style="fill:none;stroke:#fff;stroke-width:1px;stroke-linecap:butt;stroke-linejoin:miter;stroke-opacity:0.5" transform="translate(-12.75 -118.188)"/><path d="m165.101 194.037 19.02 16.79 5.727 8.18-5.727-8.18-9.12-23.665" style="fill:none;stroke:#fff;stroke-width:1px;stroke-linecap:butt;stroke-linejoin:miter;stroke-opacity:0.5;display:inline" transform="translate(-12.75 -118.188)"/><path d="M224.018 159.728c16.824-7.863 35.073-14.58 54.501-19.804" style="fill:none;stroke:#fff;stroke-width:1px;stroke-linecap:butt;stroke-linejoin:miter;stroke-opacity:0.5" transform="translate(-12.75 -118.188)"/><path style="fill:none;stroke:#fff;stroke-width:1px;stroke-linecap:butt;stroke-linejoin:miter;stroke-opacity:0.5" d="m273.929 141.157 12.142 22.277 2.59 9.642-2.59-9.642-.49-25.358" transform="rotate(40.002 525.695 399.962)"/><path style="fill:none;stroke:#fff;stroke-width:1px;stroke-linecap:butt;stroke-linejoin:miter;stroke-opacity:0.5;display:inline" d="m262.296 144.698 12.912 21.84 2.924 9.547-2.924-9.547-1.374-25.325m-23.054 7.434 13.665 21.377 3.255 9.439-3.255-9.44-2.257-25.26m23.492-6.741 11.36 22.687 2.252 9.727-2.252-9.727.393-25.359m.177-.066 10.556 23.07 1.91 9.8-1.91-9.8 1.282-25.329m.054-.038 9.75 23.424 1.567 9.86-1.568-9.86 2.16-25.27m.24-.062 8.918 23.752 1.22 9.91-1.22-9.91 3.05-25.178m.12-.04 8.084 24.049.873 9.946-.873-9.946 3.926-25.057m-106.291 24.37 14.4 20.89 3.58 9.32-3.58-9.32-3.133-25.168m-22.442 9.003 15.117 20.375 3.902 9.19-3.902-9.19-4.006-25.044m-22.156 9.797 15.82 19.836 4.22 9.048-4.22-9.048-4.878-24.889m-21.882 10.607 16.506 19.268 4.537 8.894-4.537-8.894-5.749-24.702m-21.405 11.318 17.167 18.68 4.844 8.732-4.844-8.731-6.606-24.487" transform="rotate(40.002 525.695 399.962)"/><path style="fill:none;stroke:#fff;stroke-width:1px;stroke-linecap:butt;stroke-linejoin:miter;stroke-opacity:0.5;display:inline" d="m185.333 180.443 17.801 18.078 5.142 8.558-5.142-8.558-7.446-24.245m-20.565 12.77 18.42 17.447 5.437 8.375-5.437-8.375-8.286-23.97" transform="rotate(40.002 525.695 399.962)"/><path d="m563.694 192.798 11.764 9.872-13.485 38.57 6.85 5.866 35.577-20.032 11.468 9.39-53.052 22.735-11.785-9.89z" style="fill:none;stroke:#fff;stroke-width:.99999994px;stroke-linecap:butt;stroke-linejoin:miter;stroke-opacity:0.5;display:inline" transform="translate(-12.75 -118.188)"/><path d="m582.386 189.136 33.103 27.779-41.516 25.305-7.934-6.658z" style="fill:none;stroke:#fff;stroke-width:1px;stroke-linecap:butt;stroke-linejoin:miter;stroke-opacity:0.5" transform="translate(-12.75 -118.188)"/><path d="m587.405 195.378 21.612 18.137-27.12 16.539-5.18-4.347z" style="fill:none;stroke:#fff;stroke-width:1px;stroke-linecap:butt;stroke-linejoin:miter;stroke-opacity:0.5;display:inline" transform="translate(-12.75 -118.188)"/><g style="fill:none;stroke:#fff;stroke-width:.75;stroke-miterlimit:4;stroke-dasharray:none"><path style="fill:none;stroke:#fff;stroke-width:.75;stroke-linecap:butt;stroke-linejoin:miter;stroke-miterlimit:4;stroke-opacity:0.5;stroke-dasharray:none" d="M337.857 138.076H352.5m-12.774 3.584 14.152-.089m-12.284 3.674h13.616m-11.167 3.673h12.634m-11.167 3.674h12.5m-10.497 3.673h11.785m-9.961 3.674h11.428m-9.694 3.673h11.027" transform="rotate(40.002 525.695 399.962)"/></g><g style="fill:none;stroke:#fff;stroke-width:.75;stroke-miterlimit:4;stroke-dasharray:none;display:inline"><path style="fill:none;stroke:#fff;stroke-width:.75;stroke-linecap:butt;stroke-linejoin:miter;stroke-miterlimit:4;stroke-opacity:0.5;stroke-dasharray:none" d="M337.857 138.076H352.5m-12.774 3.584 14.152-.089m-12.284 3.674h13.616m-11.167 3.673h12.634m-11.167 3.674h12.5m-10.497 3.673h11.785m-9.961 3.674h11.428m-9.694 3.673h11.027" transform="rotate(40.002 155.627 1416.664)scale(-1 1)"/></g><path d="m578.575 190.483-3.093 11.741-11.717-10.066-.26 2.114s-24.557-22.822-47.358-34.264l2.984-3.556c21.357 9.413 51.258 27.395 59.444 34.031z" style="fill:none;stroke:#fff;stroke-width:1px;stroke-linecap:butt;stroke-linejoin:miter;stroke-opacity:0.5" transform="translate(-12.75 -118.188)"/><path d="m615.746 221.676-11.026 5.084 11.947 9.792-2.037.622s26.738 20.223 41.964 40.693l2.984-3.556c-12.977-19.4-35.876-45.726-43.832-52.635z" style="fill:none;stroke:#fff;stroke-width:1px;stroke-linecap:butt;stroke-linejoin:miter;stroke-opacity:0.5;display:inline" transform="translate(-12.75 -118.188)"/><path d="m394.596 128.612 3.776 25.09-.87 9.945.87-9.946 8.226-23.99" style="fill:none;stroke:#fff;stroke-width:1px;stroke-linecap:butt;stroke-linejoin:miter;stroke-opacity:0.5;display:inline" transform="translate(-12.75 -118.188)"/><path d="M461.782 140.204c17.942 4.792 36.238 11.378 54.479 19.865" style="fill:none;stroke:#fff;stroke-width:1px;stroke-linecap:butt;stroke-linejoin:miter;stroke-opacity:0.5" transform="translate(-12.75 -118.188)"/><path d="m700.852 384.352 2.644 15.128-35.153 20.828 1.464 8.899 40.12 7.58 2.727 14.57-55.23-16.765-2.648-15.156z" style="fill:none;stroke:#fff;stroke-width:.99999994px;stroke-linecap:butt;stroke-linejoin:miter;stroke-opacity:0.5;display:inline" transform="translate(-12.75 -118.188)"/><path d="m717.512 393.586 7.44 42.569-48.058-7.371-1.783-10.203z" style="fill:none;stroke:#fff;stroke-width:1px;stroke-linecap:butt;stroke-linejoin:miter;stroke-opacity:0.5" transform="translate(-12.75 -118.188)"/><path d="m717.332 401.594 4.858 27.793-31.4-4.809-1.164-6.661z" style="fill:none;stroke:#fff;stroke-width:1px;stroke-linecap:butt;stroke-linejoin:miter;stroke-opacity:0.5;display:inline" transform="translate(-12.75 -118.188)"/><g style="fill:none;stroke:#fff;stroke-width:.75;stroke-miterlimit:4;stroke-dasharray:none"><path style="fill:none;stroke:#fff;stroke-width:.75;stroke-linecap:butt;stroke-linejoin:miter;stroke-miterlimit:4;stroke-opacity:0.5;stroke-dasharray:none" d="M337.857 138.076H352.5m-12.774 3.584 14.152-.089m-12.284 3.674h13.616m-11.167 3.673h12.634m-11.167 3.674h12.5m-10.497 3.673h11.785m-9.961 3.674h11.428m-9.694 3.673h11.027" transform="rotate(80.085 433.663 409.89)"/></g><g style="fill:none;stroke:#fff;stroke-width:.75;stroke-miterlimit:4;stroke-dasharray:none;display:inline"><path style="fill:none;stroke:#fff;stroke-width:.75;stroke-linecap:butt;stroke-linejoin:miter;stroke-miterlimit:4;stroke-opacity:0.5;stroke-dasharray:none" d="M337.857 138.076H352.5m-12.774 3.584 14.152-.089m-12.284 3.674h13.616m-11.167 3.673h12.634m-11.167 3.674h12.5m-10.497 3.673h11.785m-9.961 3.674h11.428m-9.694 3.673h11.027" transform="rotate(80.085 63.596 850.258)scale(-1 1)"/></g><path d="m713.728 392.163-9.926 6.992-2.484-15.247-1.56 1.451s-4.093-33.274-14.172-56.71l4.574-.8c10.279 20.954 21.578 53.966 23.568 64.314z" style="fill:none;stroke:#fff;stroke-width:1px;stroke-linecap:butt;stroke-linejoin:miter;stroke-opacity:0.5" transform="translate(-12.75 -118.188)"/><path style="fill:none;stroke:#fff;stroke-width:1px;stroke-linecap:butt;stroke-linejoin:miter;stroke-opacity:0.5" d="m273.929 141.157 12.142 22.277 2.59 9.642-2.59-9.642-.49-25.358" transform="rotate(120.013 397.453 413.796)"/><path style="fill:none;stroke:#fff;stroke-width:1px;stroke-linecap:butt;stroke-linejoin:miter;stroke-opacity:0.5;display:inline" d="m262.296 144.698 12.912 21.84 2.924 9.547-2.924-9.547-1.374-25.325m-23.054 7.434 13.665 21.377 3.255 9.439-3.255-9.44-2.257-25.26m23.492-6.741 11.36 22.687 2.252 9.727-2.252-9.727.393-25.359m.177-.066 10.556 23.07 1.91 9.8-1.91-9.8 1.282-25.329m.054-.038 9.75 23.424 1.567 9.86-1.568-9.86 2.16-25.27m.24-.062 8.918 23.752 1.22 9.91-1.22-9.91 3.05-25.178m.12-.04 8.084 24.049.873 9.946-.873-9.946 3.926-25.057m-106.291 24.37 14.4 20.89 3.58 9.32-3.58-9.32-3.133-25.168m-22.442 9.003 15.117 20.375 3.902 9.19-3.902-9.19-4.006-25.044m-22.156 9.797 15.82 19.836 4.22 9.048-4.22-9.048-4.878-24.889m-21.882 10.607 16.506 19.268 4.537 8.894-4.537-8.894-5.749-24.702m-21.405 11.318 17.167 18.68 4.844 8.732-4.844-8.731-6.606-24.487" transform="rotate(120.013 397.453 413.796)"/><path style="fill:none;stroke:#fff;stroke-width:1px;stroke-linecap:butt;stroke-linejoin:miter;stroke-opacity:0.5;display:inline" d="m185.333 180.443 17.801 18.078 5.142 8.558-5.142-8.558-7.446-24.245m-20.565 12.77 18.42 17.447 5.437 8.375-5.437-8.375-8.286-23.97" transform="rotate(120.013 397.453 413.796)"/><path d="m722.083 439.963-11.71-3.21 2.836 15.185-1.959-.836s7.436 32.69 5.905 58.156l4.574-.8c2.561-23.198 1.992-58.085.354-68.495z" style="fill:none;stroke:#fff;stroke-width:1px;stroke-linecap:butt;stroke-linejoin:miter;stroke-opacity:0.5;display:inline" transform="translate(-12.75 -118.188)"/><path d="M656.742 278.491c10.643 15.22 20.4 32.039 28.892 50.278" style="fill:none;stroke:#fff;stroke-width:1px;stroke-linecap:butt;stroke-linejoin:miter;stroke-opacity:0.5" transform="translate(-12.75 -118.188)"/><path d="m682.838 618.38-7.682 13.297-40.325-6.59-4.588 7.765 25.9 31.562-7.259 12.923-31.593-48.304 7.696-13.322z" style="fill:none;stroke:#fff;stroke-width:.99999994px;stroke-linecap:butt;stroke-linejoin:miter;stroke-opacity:0.5;display:inline" transform="translate(-12.75 -118.188)"/><path d="m689.687 636.153-21.615 37.42-32.123-36.497 5.18-8.969z" style="fill:none;stroke:#fff;stroke-width:1px;stroke-linecap:butt;stroke-linejoin:miter;stroke-opacity:0.5" transform="translate(-12.75 -118.188)"/><path d="m684.41 642.178-14.113 24.431-20.992-23.84 3.382-5.855z" style="fill:none;stroke:#fff;stroke-width:1px;stroke-linecap:butt;stroke-linejoin:miter;stroke-opacity:0.5;display:inline" transform="translate(-12.75 -118.188)"/><g style="fill:none;stroke:#fff;stroke-width:.75;stroke-miterlimit:4;stroke-dasharray:none"><path style="fill:none;stroke:#fff;stroke-width:.75;stroke-linecap:butt;stroke-linejoin:miter;stroke-miterlimit:4;stroke-opacity:0.5;stroke-dasharray:none" d="M337.857 138.076H352.5m-12.774 3.584 14.152-.089m-12.284 3.674h13.616m-11.167 3.673h12.634m-11.167 3.674h12.5m-10.497 3.673h11.785m-9.961 3.674h11.428m-9.694 3.673h11.027" transform="rotate(120.013 397.453 413.796)"/></g><g style="fill:none;stroke:#fff;stroke-width:.75;stroke-miterlimit:4;stroke-dasharray:none;display:inline"><path style="fill:none;stroke:#fff;stroke-width:.75;stroke-linecap:butt;stroke-linejoin:miter;stroke-miterlimit:4;stroke-opacity:0.5;stroke-dasharray:none" d="M337.857 138.076H352.5m-12.774 3.584 14.152-.089m-12.284 3.674h13.616m-11.167 3.673h12.634m-11.167 3.674h12.5m-10.497 3.673h11.785m-9.961 3.674h11.428m-9.694 3.673h11.027" transform="rotate(120.013 27.386 627.397)scale(-1 1)"/></g><path d="m687.7 632.633-12.1-1.01 7.88-13.285-2.127.112s18.217-28.144 25.53-52.585l4.02 2.322c-5.566 22.666-18.088 55.234-23.204 64.446z" style="fill:none;stroke:#fff;stroke-width:1px;stroke-linecap:butt;stroke-linejoin:miter;stroke-opacity:0.5" transform="translate(-12.75 -118.188)"/><path style="fill:none;stroke:#fff;stroke-width:1px;stroke-linecap:butt;stroke-linejoin:miter;stroke-opacity:0.5" d="m273.929 141.157 12.142 22.277 2.59 9.642-2.59-9.642-.49-25.358" transform="rotate(159.784 373.879 416.34)"/><path style="fill:none;stroke:#fff;stroke-width:1px;stroke-linecap:butt;stroke-linejoin:miter;stroke-opacity:0.5;display:inline" d="m262.296 144.698 12.912 21.84 2.924 9.547-2.924-9.547-1.374-25.325m-23.054 7.434 13.665 21.377 3.255 9.439-3.255-9.44-2.257-25.26m23.492-6.741 11.36 22.687 2.252 9.727-2.252-9.727.393-25.359m.177-.066 10.556 23.07 1.91 9.8-1.91-9.8 1.282-25.329m.054-.038 9.75 23.424 1.567 9.86-1.568-9.86 2.16-25.27m.24-.062 8.918 23.752 1.22 9.91-1.22-9.91 3.05-25.178m.12-.04 8.084 24.049.873 9.946-.873-9.946 3.926-25.057m-106.291 24.37 14.4 20.89 3.58 9.32-3.58-9.32-3.133-25.168m-22.442 9.003 15.117 20.375 3.902 9.19-3.902-9.19-4.006-25.044m-22.156 9.797 15.82 19.836 4.22 9.048-4.22-9.048-4.878-24.889m-21.882 10.607 16.506 19.268 4.537 8.894-4.537-8.894-5.749-24.702m-21.405 11.318 17.167 18.68 4.844 8.732-4.844-8.731-6.606-24.487" transform="rotate(159.784 373.879 416.34)"/><path style="fill:none;stroke:#fff;stroke-width:1px;stroke-linecap:butt;stroke-linejoin:miter;stroke-opacity:0.5;display:inline" d="m185.333 180.443 17.801 18.078 5.142 8.558-5.142-8.558-7.446-24.245m-20.565 12.77 18.42 17.447 5.437 8.375-5.437-8.375-8.286-23.97" transform="rotate(159.784 373.879 416.34)"/><path d="m663.427 674.652-6.919-9.978-7.572 13.465-.965-1.898s-15.279 29.84-32.797 48.387l4.02 2.322c16.854-16.146 38.809-43.265 44.233-52.298z" style="fill:none;stroke:#fff;stroke-width:1px;stroke-linecap:butt;stroke-linejoin:miter;stroke-opacity:0.5;display:inline" transform="translate(-12.75 -118.188)"/><path d="M716.956 508.889c-1.607 18.5-4.919 37.662-10.113 57.099" style="fill:none;stroke:#fff;stroke-width:1px;stroke-linecap:butt;stroke-linejoin:miter;stroke-opacity:0.5" transform="translate(-12.75 -118.188)"/><path d="m519.663 785.876-14.41 5.307-26.78-30.862-8.492 3.032-.285 40.828-13.846 5.289 6.618-57.337 14.438-5.317z" style="fill:none;stroke:#fff;stroke-width:.99999994px;stroke-linecap:butt;stroke-linejoin:miter;stroke-opacity:0.5;display:inline" transform="translate(-12.75 -118.188)"/><path d="m513.558 803.919-40.552 14.933-1.342-48.602 9.72-3.579z" style="fill:none;stroke:#fff;stroke-width:1px;stroke-linecap:butt;stroke-linejoin:miter;stroke-opacity:0.5" transform="translate(-12.75 -118.188)"/><path d="m505.647 805.174-26.476 9.75-.884-31.754 6.346-2.336z" style="fill:none;stroke:#fff;stroke-width:1px;stroke-linecap:butt;stroke-linejoin:miter;stroke-opacity:0.5;display:inline" transform="translate(-12.75 -118.188)"/><g style="fill:none;stroke:#fff;stroke-width:.75;stroke-miterlimit:4;stroke-dasharray:none"><path style="fill:none;stroke:#fff;stroke-width:.75;stroke-linecap:butt;stroke-linejoin:miter;stroke-miterlimit:4;stroke-opacity:0.5;stroke-dasharray:none" d="M337.857 138.076H352.5m-12.774 3.584 14.152-.089m-12.284 3.674h13.616m-11.167 3.673h12.634m-11.167 3.674h12.5m-10.497 3.673h11.785m-9.961 3.674h11.428m-9.694 3.673h11.027" transform="rotate(159.784 373.879 416.34)"/></g><g style="fill:none;stroke:#fff;stroke-width:.75;stroke-miterlimit:4;stroke-dasharray:none;display:inline"><path style="fill:none;stroke:#fff;stroke-width:.75;stroke-linecap:butt;stroke-linejoin:miter;stroke-miterlimit:4;stroke-opacity:0.5;stroke-dasharray:none" d="M337.857 138.076H352.5m-12.774 3.584 14.152-.089m-12.284 3.674h13.616m-11.167 3.673h12.634m-11.167 3.674h12.5m-10.497 3.673h11.785m-9.961 3.674h11.428m-9.694 3.673h11.027" transform="rotate(159.784 3.812 482.312)scale(-1 1)"/></g><path d="m514.282 799.942-8.655-8.517 14.557-5.17-1.707-1.274s32.006-9.978 53.262-24.085l1.605 4.357c-18.778 13.86-49.237 30.88-59.062 34.689z" style="fill:none;stroke:#fff;stroke-width:1px;stroke-linecap:butt;stroke-linejoin:miter;stroke-opacity:0.5" transform="translate(-12.75 -118.188)"/><path d="m468.745 816.71 1.065-12.095-14.433 5.505.472-2.077s-30.833 13.162-56.162 16.21l1.604 4.356c23.283-1.628 57.506-8.426 67.454-11.9z" style="fill:none;stroke:#fff;stroke-width:1px;stroke-linecap:butt;stroke-linejoin:miter;stroke-opacity:0.5;display:inline" transform="translate(-12.75 -118.188)"/><path d="M615.93 723.548c-13.07 13.192-27.874 25.8-44.3 37.417" style="fill:none;stroke:#fff;stroke-width:1px;stroke-linecap:butt;stroke-linejoin:miter;stroke-opacity:0.5" transform="translate(-12.75 -118.188)"/><g style="display:inline"><path d="m273.929 141.157 12.142 22.277 2.59 9.642-2.59-9.642-.49-25.358" style="fill:none;stroke:#fff;stroke-width:1px;stroke-linecap:butt;stroke-linejoin:miter;stroke-opacity:0.5" transform="rotate(-40.178 201.766 434.907)"/><path d="m262.296 144.698 12.912 21.84 2.924 9.547-2.924-9.547-1.374-25.325m-23.054 7.434 13.665 21.377 3.255 9.439-3.255-9.44-2.257-25.26m23.492-6.741 11.36 22.687 2.252 9.727-2.252-9.727.393-25.359m.177-.066 10.556 23.07 1.91 9.8-1.91-9.8 1.282-25.329m.054-.038 9.75 23.424 1.567 9.86-1.568-9.86 2.16-25.27m.24-.062 8.918 23.752 1.22 9.91-1.22-9.91 3.05-25.178m.12-.04 8.084 24.049.873 9.946-.873-9.946 3.926-25.057m-106.291 24.37 14.4 20.89 3.58 9.32-3.58-9.32-3.133-25.168m-22.442 9.003 15.117 20.375 3.902 9.19-3.902-9.19-4.006-25.044m-22.156 9.797 15.82 19.836 4.22 9.048-4.22-9.048-4.878-24.889m-21.882 10.607 16.506 19.268 4.537 8.894-4.537-8.894-5.749-24.702m-21.405 11.318 17.167 18.68 4.844 8.732-4.844-8.731-6.606-24.487" style="fill:none;stroke:#fff;stroke-width:1px;stroke-linecap:butt;stroke-linejoin:miter;stroke-opacity:0.5;display:inline" transform="rotate(-40.178 201.766 434.907)"/><path d="m185.333 180.443 17.801 18.078 5.142 8.558-5.142-8.558-7.446-24.245m-20.565 12.77 18.42 17.447 5.437 8.375-5.437-8.375-8.286-23.97" style="fill:none;stroke:#fff;stroke-width:1px;stroke-linecap:butt;stroke-linejoin:miter;stroke-opacity:0.5;display:inline" transform="rotate(-40.178 201.766 434.907)"/><path style="fill:none;stroke:#fff;stroke-width:.99999994px;stroke-linecap:butt;stroke-linejoin:miter;stroke-opacity:0.5;display:inline" d="M335.893 134.505h15.357l14.464 38.214 9.018.09 14.375-38.215 14.822-.178-26.025 51.518H362.52z" transform="rotate(-40.178 201.766 434.907)"/><path style="fill:none;stroke:#fff;stroke-width:1px;stroke-linecap:butt;stroke-linejoin:miter;stroke-opacity:0.5" d="M347.857 119.684h43.214l-15.535 46.071h-10.357z" transform="rotate(-40.178 201.766 434.907)"/><path style="fill:none;stroke:#fff;stroke-width:1px;stroke-linecap:butt;stroke-linejoin:miter;stroke-opacity:0.5;display:inline" d="M355.714 121.24h28.215l-10.144 30.102h-6.762z" transform="rotate(-40.178 201.766 434.907)"/><g style="fill:none;stroke:#fff;stroke-width:.75;stroke-miterlimit:4;stroke-dasharray:none"><path d="M337.857 138.076H352.5m-12.774 3.584 14.152-.089m-12.284 3.674h13.616m-11.167 3.673h12.634m-11.167 3.674h12.5m-10.497 3.673h11.785m-9.961 3.674h11.428m-9.694 3.673h11.027" style="fill:none;stroke:#fff;stroke-width:.75;stroke-linecap:butt;stroke-linejoin:miter;stroke-miterlimit:4;stroke-opacity:0.5;stroke-dasharray:none" transform="rotate(-40.178 201.766 434.907)"/></g><g style="fill:none;stroke:#fff;stroke-width:.75;stroke-miterlimit:4;stroke-dasharray:none;display:inline"><path d="M337.857 138.076H352.5m-12.774 3.584 14.152-.089m-12.284 3.674h13.616m-11.167 3.673h12.634m-11.167 3.674h12.5m-10.497 3.673h11.785m-9.961 3.674h11.428m-9.694 3.673h11.027" style="fill:none;stroke:#fff;stroke-width:.75;stroke-linecap:butt;stroke-linejoin:miter;stroke-miterlimit:4;stroke-opacity:0.5;stroke-dasharray:none" transform="rotate(140 211.008 -61.553)scale(1 -1)"/></g><path style="fill:none;stroke:#fff;stroke-width:1px;stroke-linecap:butt;stroke-linejoin:miter;stroke-opacity:0.5" d="m345.804 123.166 5.178 10.982-15.446-.179 1.16 1.786s-33.482-1.696-58.303 4.196v-4.642c22.41-6.518 56.875-11.965 67.41-12.143z" transform="rotate(-40.178 201.766 434.907)"/><path style="fill:none;stroke:#fff;stroke-width:1px;stroke-linecap:butt;stroke-linejoin:miter;stroke-opacity:0.5;display:inline" d="m394.33 123.166-5.18 10.982 15.447-.179-1.16 1.786s33.481-1.696 58.303 4.196v-4.642c-22.411-6.518-56.875-11.965-67.411-12.143z" transform="rotate(-40.178 201.766 434.907)"/><path style="fill:none;stroke:#fff;stroke-width:1px;stroke-linecap:butt;stroke-linejoin:miter;stroke-opacity:0.5;display:inline" d="m165.101 194.037 19.02 16.79 5.727 8.18-5.727-8.18-9.12-23.665" transform="rotate(-40.178 201.766 434.907)"/><path style="fill:none;stroke:#fff;stroke-width:1px;stroke-linecap:butt;stroke-linejoin:miter;stroke-opacity:0.5" d="M224.018 159.728c16.824-7.863 35.073-14.58 54.501-19.804" transform="rotate(-40.178 201.766 434.907)"/></g><path d="m26.912 451.338 2.63-15.13 40.125-7.71 1.632-8.869-35.189-20.705 2.361-14.633 46.303 34.46-2.634 15.158z" style="fill:none;stroke:#fff;stroke-width:.99999994px;stroke-linecap:butt;stroke-linejoin:miter;stroke-opacity:0.5;display:inline" transform="translate(-12.75 -118.188)"/><path d="m14.358 437.013 7.398-42.577 42.731 23.194-1.773 10.204z" style="fill:none;stroke:#fff;stroke-width:1px;stroke-linecap:butt;stroke-linejoin:miter;stroke-opacity:0.5" transform="translate(-12.75 -118.188)"/><path d="m17.236 429.538 4.83-27.798 27.921 15.147-1.157 6.662z" style="fill:none;stroke:#fff;stroke-width:1px;stroke-linecap:butt;stroke-linejoin:miter;stroke-opacity:0.5;display:inline" transform="translate(-12.75 -118.188)"/><g style="fill:none;stroke:#fff;stroke-width:.75;stroke-miterlimit:4;stroke-dasharray:none"><path style="fill:none;stroke:#fff;stroke-width:.75;stroke-linecap:butt;stroke-linejoin:miter;stroke-miterlimit:4;stroke-opacity:0.5;stroke-dasharray:none" d="M337.857 138.076H352.5m-12.774 3.584 14.152-.089m-12.284 3.674h13.616m-11.167 3.673h12.634m-11.167 3.674h12.5m-10.497 3.673h11.785m-9.961 3.674h11.428m-9.694 3.673h11.027" transform="rotate(-80.143 293.097 425.054)"/></g><g style="fill:none;stroke:#fff;stroke-width:.75;stroke-miterlimit:4;stroke-dasharray:none;display:inline"><path style="fill:none;stroke:#fff;stroke-width:.75;stroke-linecap:butt;stroke-linejoin:miter;stroke-miterlimit:4;stroke-opacity:0.5;stroke-dasharray:none" d="M337.857 138.076H352.5m-12.774 3.584 14.152-.089m-12.284 3.674h13.616m-11.167 3.673h12.634m-11.167 3.674h12.5m-10.497 3.673h11.785m-9.961 3.674h11.428m-9.694 3.673h11.027" transform="rotate(99.857 12.5 -64.75)scale(1 -1)"/></g><path d="m17.437 439.632 11.706-3.222-2.82 15.188 1.958-.838s-7.403 32.697-5.847 58.161l-4.574-.795c-2.585-23.195-2.05-58.083-.423-68.494z" style="fill:none;stroke:#fff;stroke-width:1px;stroke-linecap:butt;stroke-linejoin:miter;stroke-opacity:0.5" transform="translate(-12.75 -118.188)"/><path d="m25.744 391.823 9.934 6.982 2.468-15.249 1.56 1.45s4.061-33.279 14.116-56.725l-4.574-.795c-10.258 20.964-21.524 53.987-23.504 64.337z" style="fill:none;stroke:#fff;stroke-width:1px;stroke-linecap:butt;stroke-linejoin:miter;stroke-opacity:0.5;display:inline" transform="translate(-12.75 -118.188)"/><path d="M32.61 565.88c-4.866-17.923-8.36-37.052-10.18-57.088" style="fill:none;stroke:#fff;stroke-width:1px;stroke-linecap:butt;stroke-linejoin:miter;stroke-opacity:0.5" transform="translate(-12.75 -118.188)"/><path d="m394.33 123.166-5.18 10.982 15.447-.179-1.16 1.786s33.481-1.696 58.303 4.196v-4.642c-22.411-6.518-56.875-11.965-67.411-12.143z" style="fill:none;stroke:#fff;stroke-width:1px;stroke-linecap:butt;stroke-linejoin:miter;stroke-opacity:0.5;display:inline" transform="translate(-12.75 -118.188)"/><path d="M335.893 134.505h15.357l14.464 38.214 9.018.09 14.375-38.215 14.822-.178-26.025 51.518H362.52z" style="fill:none;stroke:#fff;stroke-width:.99999994px;stroke-linecap:butt;stroke-linejoin:miter;stroke-opacity:0.5;display:inline" transform="translate(-12.75 -118.188)"/><g style="fill:none;stroke:#fff;stroke-width:.75;stroke-miterlimit:4;stroke-dasharray:none;display:inline"><path style="fill:none;stroke:#fff;stroke-width:.75;stroke-linecap:butt;stroke-linejoin:miter;stroke-miterlimit:4;stroke-opacity:0.5;stroke-dasharray:none" d="M337.857 138.076H352.5m-12.774 3.584 14.152-.089m-12.284 3.674h13.616m-11.167 3.673h12.634m-11.167 3.674h12.5m-10.497 3.673h11.785m-9.961 3.674h11.428m-9.694 3.673h11.027" transform="matrix(-1 0 0 1 727.384 -118.188)"/></g><g style="fill:none;stroke:#fff;stroke-width:.75;stroke-miterlimit:4;stroke-dasharray:none"><path style="fill:none;stroke:#fff;stroke-width:.75;stroke-linecap:butt;stroke-linejoin:miter;stroke-miterlimit:4;stroke-opacity:0.5;stroke-dasharray:none" d="M337.857 138.076H352.5m-12.774 3.584 14.152-.089m-12.284 3.674h13.616m-11.167 3.673h12.634m-11.167 3.674h12.5m-10.497 3.673h11.785m-9.961 3.674h11.428m-9.694 3.673h11.027" transform="translate(-12.75 -118.188)"/></g><g style="display:inline"><path style="fill:none;stroke:#fff;stroke-width:1px;stroke-linecap:butt;stroke-linejoin:miter;stroke-opacity:0.5" d="m202.536 212.42 27.274 42.427" transform="translate(-12.75 -118.188)"/><path style="fill:none;stroke:#fff;stroke-width:1px;stroke-linecap:butt;stroke-linejoin:miter;stroke-opacity:0.5;display:inline" d="m247.136 188.997 20.106 46.256m27.652-62.205 12.42 48.884m37.468-56.975 4.38 50.246m45.998-50.206-3.747 50.297m53.746-42.096-11.823 49.031" transform="translate(-12.75 -118.188)"/></g><g style="display:inline"><path style="fill:none;stroke:#fff;stroke-width:1px;stroke-linecap:butt;stroke-linejoin:miter;stroke-opacity:0.5" d="m202.536 212.42 27.274 42.427" transform="rotate(258.006 315.488 422.562)"/><path style="fill:none;stroke:#fff;stroke-width:1px;stroke-linecap:butt;stroke-linejoin:miter;stroke-opacity:0.5;display:inline" d="m247.136 188.997 20.106 46.256m27.652-62.205 12.42 48.884m37.468-56.975 4.38 50.246m45.998-50.206-3.747 50.297m53.746-42.096-11.823 49.031" transform="rotate(258.006 315.488 422.562)"/></g><path d="m683.525 462.17-50.367 2.654m48.58 47.854-50.137-5.496m40.279 54.901-48.603-13.478M56.326 629.8l19.8-15.865 9.038-4.242-9.038 4.242-24.878 4.934" style="fill:none;stroke:#fff;stroke-width:1px;stroke-linecap:butt;stroke-linejoin:miter;stroke-opacity:0.5;display:inline" transform="translate(-12.75 -118.188)"/><path d="m91.166 677.97-7.73-13.27 25.741-31.733-4.462-7.837-40.256 6.813-7.614-12.718 57.615-3.442 7.744 13.294z" style="fill:none;stroke:#fff;stroke-width:.99999994px;stroke-linecap:butt;stroke-linejoin:miter;stroke-opacity:0.5;display:inline" transform="translate(-12.75 -118.188)"/><path d="m72.337 675.092-21.75-37.342 47.629-9.764 5.213 8.95z" style="fill:none;stroke:#fff;stroke-width:1px;stroke-linecap:butt;stroke-linejoin:miter;stroke-opacity:0.5" transform="translate(-12.75 -118.188)"/><path d="m69.727 667.52-14.2-24.38 31.116-6.387 3.403 5.843z" style="fill:none;stroke:#fff;stroke-width:1px;stroke-linecap:butt;stroke-linejoin:miter;stroke-opacity:0.5;display:inline" transform="translate(-12.75 -118.188)"/><g style="fill:none;stroke:#fff;stroke-width:.75;stroke-miterlimit:4;stroke-dasharray:none"><path style="fill:none;stroke:#fff;stroke-width:.75;stroke-linecap:butt;stroke-linejoin:miter;stroke-miterlimit:4;stroke-opacity:0.5;stroke-dasharray:none" d="M337.857 138.076H352.5m-12.774 3.584 14.152-.089m-12.284 3.674h13.616m-11.167 3.673h12.634m-11.167 3.674h12.5m-10.497 3.673h11.785m-9.961 3.674h11.428m-9.694 3.673h11.027" transform="rotate(239.78 329.377 421.14)"/></g><g style="fill:none;stroke:#fff;stroke-width:.75;stroke-miterlimit:4;stroke-dasharray:none;display:inline"><path style="fill:none;stroke:#fff;stroke-width:.75;stroke-linecap:butt;stroke-linejoin:miter;stroke-miterlimit:4;stroke-opacity:0.5;stroke-dasharray:none" d="M337.857 138.076H352.5m-12.774 3.584 14.152-.089m-12.284 3.674h13.616m-11.167 3.673h12.634m-11.167 3.674h12.5m-10.497 3.673h11.785m-9.961 3.674h11.428m-9.694 3.673h11.027" transform="rotate(239.78 -40.69 208.43)scale(-1 1)"/></g><path d="m51.956 633.183 12.096-1.053-7.93-13.257 2.128.104s-18.318-28.078-25.72-52.492l-4.011 2.337c5.647 22.645 18.288 55.167 23.437 64.36z" style="fill:none;stroke:#fff;stroke-width:1px;stroke-linecap:butt;stroke-linejoin:miter;stroke-opacity:0.5;display:inline" transform="translate(-12.75 -118.188)"/><path d="m285.644 809.864-14.448-5.203-.661-40.855-8.454-3.14-26.473 31.084-14.005-4.854 41.94-39.653 14.475 5.213z" style="fill:none;stroke:#fff;stroke-width:.99999994px;stroke-linecap:butt;stroke-linejoin:miter;stroke-opacity:0.5;display:inline" transform="translate(-12.75 -118.188)"/><g style="fill:none;stroke:#fff;stroke-width:.75;stroke-miterlimit:4;stroke-dasharray:none"><path style="fill:none;stroke:#fff;stroke-width:.75;stroke-linecap:butt;stroke-linejoin:miter;stroke-miterlimit:4;stroke-opacity:0.5;stroke-dasharray:none" d="M337.857 138.076H352.5m-12.774 3.584 14.152-.089m-12.284 3.674h13.616m-11.167 3.673h12.634m-11.167 3.674h12.5m-10.497 3.673h11.785m-9.961 3.674h11.428m-9.694 3.673h11.027" transform="rotate(199.805 353.028 418.589)"/></g><g style="fill:none;stroke:#fff;stroke-width:.75;stroke-miterlimit:4;stroke-dasharray:none;display:inline"><path style="fill:none;stroke:#fff;stroke-width:.75;stroke-linecap:butt;stroke-linejoin:miter;stroke-miterlimit:4;stroke-opacity:0.5;stroke-dasharray:none" d="M337.857 138.076H352.5m-12.774 3.584 14.152-.089m-12.284 3.674h13.616m-11.167 3.673h12.634m-11.167 3.674h12.5m-10.497 3.673h11.785m-9.961 3.674h11.428m-9.694 3.673h11.027" transform="rotate(199.805 -17.04 353.986)scale(-1 1)"/></g></g></svg>
