<svg xmlns="http://www.w3.org/2000/svg" viewBox="-1 -1 715.813 713.938" style="display:inline">
<g id="inner-glyphs" transform="translate(-22.698,-22.992) scale(1.1940)" style="fill:none;stroke:#a6cbe7;stroke-width:1px;stroke-opacity:0.45">
<g transform="translate(318.214,319.466) scale(0.94) translate(-318.214,-319.466)">
  <path d="m318.457 60.43 11.23 14.802-5.475.008s.644-.599.976-.979c.799-.891.575-1.367-2.819-6.069-2.026-2.807-3.809-5.101-3.962-5.101s-1.935 2.294-3.959 5.101c-3.396 4.702-3.618 5.179-2.824 6.069.33.37.837.969.837.969l-5.334.002zm1.789-4.144c0 .995-.809 1.804-1.804 1.804a1.805 1.805 0 0 1-1.803-1.804c0-.994.809-1.803 1.803-1.803.996 0 1.804.809 1.804 1.803m-1.804-3.188a3.19 3.19 0 0 0-3.187 3.188 3.19 3.19 0 0 0 6.376 0 3.19 3.19 0 0 0-3.189-3.188m34.707 4.726-1.51 4.455.128.671 4.54 5.367-.05-.827-4.351 6.629.452 1.061 10.861 1.978.791-.492 1.86-6.608-.23.346 4.93-4.04.227-.73-1.512-5.16-.196-.665-1.328.388.196.664 1.511 5.163.223-.732-4.93 4.043-.228.347-1.854 6.61.787-.496-10.86-1.98.455 1.063 4.354-6.63-.05-.825-4.544-5.369.129.669 1.509-4.457.22-.655-1.309-.444z"/>
  <path d="m356.532 68.519 8.492 2.094.675.164.33-1.343-.672-.164-8.49-2.094-.677-.166-.328 1.344zm-3.994-11.89 3.455.65-2.329 1.315zm14.086 2.29 3.192.518-1.49 1.752zm38.036 20.676-6.343-2.703-.64.05-7.767 4.92-.585.37.743 1.172.584-.374 7.767-4.915-.641.052 6.34 2.703.635.272.545-1.274zm-10.133-9.286 4.92 2.656c.031.013 7.476 3.565 7.476 3.565l.623.297.597-1.25-.624-.297-7.445-3.552-4.89-2.639-.606-.327-.659 1.216z"/>
  <path d="m398.882 77.54 1.536-4.6.219-.657-1.315-.439-.219.657-1.536 4.6-.219.657 1.315.439zm7.166 1.227 1.072 3.339.379-.845-6.169 2.682.142-.045-2.686.542.77.957.433-.97-.682.408 2.441.176.613-.284 8.553-11.739.402-.558-1.116-.816-.408.558-8.55 11.744.608-.285-2.446-.178-.681.412-.434.973.77.957 2.684-.54.141-.044 6.168-2.682.385-.846-1.073-3.34-.208-.657-1.318.421zm-11.304-9.057-.184-2.24-1.909 2.93zm-4.415 12.754-2.099-.574 1.573 2.79zm53.296 9.894-3.47-5.79-.356-.592-1.19.71.355.593 3.473 5.794.357.592 1.185-.71z"/>
  <path d="m439.904 88.039-7.175 6.713.595-.174-6.455-1.163-.735.999 3.452 6.578 1.22.016 2.966-5.354-.282.278 8.674-4.577.615-.324-.648-1.221-.612.319-8.675 4.58-.28.276-2.97 5.35 1.218.016-3.455-6.579-.736 1.004 6.456 1.163.595-.174 7.178-6.716.507-.47-.95-1.013zm2.281-3.978 5.649 8.76.37.58 1.164-.75-.374-.581-5.644-8.757-.374-.585-1.162.75zm17.682 30.184 4.68 2.9-.162-1.038-3.573 4.169 1.207.347-1.105-7.074zm1.997 6.936 3.573-4.174-.16-1.038-4.679-2.898-1.052.693 1.107 7.076zm6.206-4.373 4.569-.699.683-.105-.21-1.368-.681.107-4.573.697-.684.104.211 1.37z"/>
  <path d="m473.816 124.335 4.298-8.293.018-.597-4.07-9.21-.28-.636-1.266.559.28.632 4.067 9.213.021-.596-4.296 8.29-.32.615 1.23.635z"/>
  <path d="m477.914 116.043 7.875-3.228.642-.26-.524-1.282-.639.26-7.878 3.228-.641.261.527 1.28z"/>
  <path d="m473.428 106.513.943-1.845-2.98.927zm11.92 5.787.676-1.951 1.161 2.895zm-12.09 11.759-1.999.433 2.712 1.425zm32.944 5.418 2.983 7.468.419.395 7.407 2.54-.451-.808-2.512 11.186.593-.536L503.973 151l.574.2-8.142-8.173-.518-.201-2.244.105-.69.03.064 1.383.693-.031 2.24-.104-.523-.203 8.139 8.17.572.196 10.666-1.273.592-.537 2.515-11.187-.452-.808-7.406-2.537.417.401-2.982-7.47-.256-.64-1.284.51z"/>
  <path d="m516.153 138.914-12.168 11.785-.5.481.963.995.496-.48 12.172-11.789.498-.481-.964-.993zm23.692 30.346-5.419 3.799.718-.046-5.864-3.072-.716.044-8.87 6.183-.569.395.792 1.139.565-.396 8.874-6.186-.716.045 5.865 3.074.714-.047 5.423-3.802.564-.398-.794-1.13z"/>
  <path d="m539.952 170.024.386-2.106 1.765 2.465zm-19.656 6.571-.264 1.837-1.608-2.328zm36.132 24.509-3.25 5.12 1.2.059-2.838-5.656-.679 1 6.092.535zm-6.126.145 2.841 5.657 1.203.06 3.252-5.12-.525-1.063-6.09-.536zm-.597 14.265-3.099 5.284 1.22.046-2.838-5.815-.682.994 5.932.53zm-5.96.124 2.836 5.81 1.217.05 3.1-5.284-.536-1.036-5.933-.534zm17.545 24.465-3.206-1.437-.746.118-2.752 2.478-.203.714 2.02 6.78.634.494 6.435.24-.192-.035 5.528 1.819-.367-.281 3.615 5.58.377.583 1.16-.753-.376-.583-3.614-5.581-.363-.277-5.526-1.821-.19-.035-6.435-.242.64.494-2.018-6.777-.201.714 2.753-2.484-.747.117 3.207 1.44.63.282.567-1.262z"/>
  <path d="m575.978 253.597-3.613 2.416.283-.112-4.841.719-.686.1.204 1.37.686-.104 4.841-.715.282-.11 3.614-2.415.576-.385-.77-1.149z"/>
  <path d="m576.223 254.417 2.155.171-1.831-2.257zm-8.023 2.797-1.808-1.05.357 2.579zm-7.73-16.69 2.296-.615-1.38 2.504zm20.581 49.594-.078-4.735-.24-.512-3.321-2.856-.619-.146-4.466 1.11-.371.235-3.94 4.871-.153.372-.536 6.087 1.114-.485-5.085-3.983-.201 1.197 5.028-1.743.657-.23-.454-1.305-.656.227-5.029 1.745-.199 1.197 5.087 3.984 1.118-.485.534-6.084-.152.377 3.942-4.871-.372.233 4.468-1.105-.619-.145 3.325 2.853-.243-.511.08 4.73.01.692 1.387-.023zm-1.906 2.558-4.224 3.7.276 1.191 5.637 1.51.849-.848-1.414-5.214zm2.046 5.063-5.634-1.51.275 1.19 4.224-3.702-1.122-.339 1.411 5.209zm.205 41.538-3.514-6.919.05.131-3.26-11.963-1.31-.071-5.006 12.538.682.949 8.06-.483.694-.046-.084-1.38-.69.045-8.059.48.684.948 5.003-12.54-1.308-.073 3.256 11.963.052.132 3.515 6.916.312.62 1.235-.629zm-2.828-9.899.814 2.462.215.656 1.313-.436-.216-.652-.81-2.463-.218-.657-1.315.433z"/>
  <path d="m580.973 339.75 2.074.034-3.577 2.13zm-16.268 27.748 1.67-1.102.292-.423.468-2.02-.533.523 7.924-1.685-.679-.232 1.699 2.048-.145-.592-2.501 11.245.006.331.53 1.963.22.35 3.3 2.786.17-1.163-7.295 3.153.806.19-2.99-3.549-.31 1.1 6.59-2.214.655-.22-.441-1.312-.657.22-6.588 2.215-.31 1.101 2.99 3.55.805.189 7.294-3.154.173-1.163-3.3-2.785.226.346-.53-1.96.007.326 2.502-11.248-.142-.588-1.696-2.048-.676-.236-7.924 1.685-.532.518-.465 2.02.296-.42-1.671 1.101-.579.38.766 1.156z"/>
  <path d="m578.221 368.314-3.597 1.95 1.492 1.799 2.903-2.865zm-11.295 33.546-13.388 4.38-.205 1.207 11.923 9.165.032-1.115-8.767 6.025-.571.387.784 1.145.568-.394 8.77-6.02.029-1.122-11.924-9.17-.205 1.21 13.386-4.384.656-.213-.43-1.317z"/>
  <path d="m566.753 402.696 1.782 1-1-2.919zm-9.357 19.254-.422 2.112-1.868-3.198zm-3.45 23.39-14.634-13.354-1.114.272-7.2 19.235-.242.648 1.295.487.245-.65 7.198-19.238-1.115.267 14.634 13.354.514.464.93-1.023z"/>
  <path d="m547.471 450.12-4.622-4.42-1.128.255-2.29 6.087.811.92 6.91-1.671zm-6.742 2.41 2.29-6.086-1.13.257 4.625 4.42.317-1.175-6.912 1.668zm12.522-6.992 2.382-.08-2.686 2.529zm-21.29 5.446 1.2 2.27-3.52-1.277zm-17.464 41.422-6.637-10.247-.084.858 7.511-7.76-.413.203 6.456-.793-.713-.986-8.128 16.905-.298.627 1.246.598.299-.623 8.132-16.906-.708-.99-6.456.797-.411.206-7.51 7.762-.087.857 6.64 10.244.374.58 1.164-.75zm-32.305 22.078-1.474-1.663.144.653 1.755-5.94-.532.483 6.74-1.311-.587-.158 5.17 4.465-.197-.29 1.956 5.486-.04-.276-.235 3.924.23-.474-1.095.97.69-.134-6.233-2.24.284.196-2.412-2.722-.362-.218-4.166-.97zm3.132 1.887 2.411 2.723.283.192 6.236 2.24.692-.135 1.096-.971.232-.477.238-3.922-.04-.276-1.956-5.487-.202-.29-5.17-4.468-.586-.153-6.733 1.31-.535.48-1.755 5.946.147.656 1.474 1.664.362.212 4.167.968z"/>
  <path d="m488.074 506.393-7.022 7.162-.48.494.987.968.488-.492 7.016-7.163.485-.496-.99-.969zm-24.697 30.295 1.892-8.727-.939-.79-21.504 8.82-.296 1.048 3.474 4.736.409.558 1.117-.816-.412-.56-3.472-4.737-.3 1.05 21.51-8.817-.941-.788-1.895 8.732-.145.677 1.351.29z"/>
  <path d="m462.737 536.219 1.401 1.744-3.462-.557zm-16.257 5.021 2.155.191-2.594 1.76zm-14.197 12.617-3.75 5.186.295-.233-7.144 2.966.407-.038-12.229-2.508-.677-.14-.28 1.358.68.138 12.226 2.51.404-.039 7.146-2.97.292-.232 3.751-5.191.405-.559-1.122-.81z"/>
  <path d="m421.022 561.593.507-3.651-.079-.43-2.436-4.464-.33-.607-1.216.666.333.607 2.438 4.462-.077-.426-.512 3.653-.093.688 1.37.19zm10.689-7.245-3.172-1.704.306.327-1.64-3.659.007.55 1.293-3.07.268-.64-1.278-.533-.267.635-1.29 3.072.004.55 1.64 3.66.3.327 3.173 1.705.61.33.656-1.22zm-47.899 5.132.96 3.893.088-.539-4.866 7.57-.102.488 1.47 8.905.114.68 1.364-.221-.114-.683-1.468-8.91-.099.488 4.865-7.57.089-.539-.96-3.893-.166-.672-1.34.33zm-10.465 12.69.08-2.917-.174.437 5.825-6.648.152-.605-.67-3.02-.153-.677-1.35.3.152.675.67 3.023.154-.607-5.82 6.647-.168.44-.08 2.915-.02.69 1.387.04z"/>
  <path d="m380.422 570.007-6.801-.86-.685-.088-.173 1.375.687.088 6.798.857.687.087.174-1.375zm-5.22 6.888-3.21.79-.288 1.191 2.401 2.09 1.117-.334.811-2.876zm-.188 3.027-2.402-2.088-.287 1.194 3.209-.79-.834-.86-.808 2.879zm-25.392 4.985-13.813-5.98.205.134-8.078-7.759-.043 1.035 7.136-5.798-1.126-.48 1.053 13.043.055.688 1.379-.11-.056-.69-1.053-13.043-1.126-.481-7.134 5.797-.044 1.037 8.08 7.76.202.138 13.815 5.979.633.276.552-1.27zm-55.786-2.377a1.837 1.837 0 0 1 1.976-1.683 1.837 1.837 0 0 1 1.68 1.977c-.082 1.006-.967 1.762-1.975 1.68s-1.762-.97-1.68-1.975m1.568 3.355a3.22 3.22 0 0 0 3.466-2.948 3.223 3.223 0 0 0-2.947-3.47 3.22 3.22 0 0 0-.519 6.418"/>
  <path d="m296.668 579.959-.407-5.001-.094-.299-2.46-4.101-.065-.093-3.982-4.68-.55 1.14 15.68.556.465-.156 1.66-1.363-.84.026 2.424 1.744.111-1.189-2.674 1.253.84.202-1.138-1.46-.424-.546-1.092.848.423.55 1.139 1.456.84.203 2.673-1.253.11-1.19-2.425-1.741-.844.029-1.661 1.36.464-.156-15.682-.557-.553 1.139 3.983 4.683-.067-.094 2.458 4.103-.096-.303.406 5 .057.69 1.38-.112zm-43.545-11.099 3.445-11.22-1.145.293 7.264 7.044-.206-.425.152 1.494.106-.444-1.424 2.195-.094.53.67 2.977.14-.593-1.709 2.077-.136.602.758 3.055.175-.652-1.748 1.808-.128.774.85 1.824.407-.949-1.873.63.414-.009-2.33-.676.32 1.128 2.075-2.3.149-.667-.806-2.64-.107.614 1.71-2.288.135-.414-.01-2.706-.062.293 1.872-4.015-.495-.972-6.952-1.346-.68-.134-.264 1.357.679.134 6.954 1.35-.496-.972-1.872 4.014-.066.292.008 2.71.137-.418-1.707 2.286-.109.619.806 2.64.15-.664-2.075 2.297.32 1.127 2.33.681.415-.01 1.87-.628.406-.948-.848-1.823-.13.771 1.744-1.806.174-.647-.755-3.053-.138.607 1.71-2.077.14-.589-.674-2.975-.093.529 1.426-2.198.107-.447-.151-1.493-.207-.431-7.265-7.045-1.146.293-3.441 11.226-.204.659 1.323.408z"/>
  <path d="m252.572 568.217 1.095 1.675-2.992-.737zm-24.362-14.02-.579 13.866 1.012-.584-21.75-11.464-.248 1.302 22.334-2.404zm-21.962 3.045 21.75 11.463 1.015-.583.582-13.868-.767-.716-22.33 2.405zm-15.362-24.54-9.903 5.452.24-.08-12.505 1.721-.685.093.188 1.37.684-.094 12.506-1.715.237-.081 9.907-5.453.605-.335-.667-1.211z"/>
  <path d="m191.151 533.324.485-1.903 1.388 2.725zm-22.077 7.021-.938 1.678-.523-2.961zm-12.044-31.654.878 2.667.121-.652-4.465 5.496.411-.244-5.235.962-.382.207-2.857 3.072.777-.165-10.104-4.292.243 1.102 3.825-4.167.12-.184 4.738-10.45-1.147.177 3.187 3.564.053-.974-3.326 2.992-.111.125-3.153 4.63-.39.57 1.141.781.395-.573 3.152-4.63-.107.126 3.325-2.993.054-.975-3.187-3.564-1.147.175-4.738 10.452.121-.183-3.826 4.166.237 1.105 10.104 4.29.779-.163 2.855-3.071-.383.208 5.24-.96.412-.244 4.463-5.498.12-.65-.877-2.668-.217-.656-1.316.43z"/>
  <path d="m148.02 517.955-7.59-5.983-.545-.43-.856 1.087.545.43 7.592 5.982.546.43.854-1.086zm-27.85-21.439-3.788-4.473.131.235-1.01-3.155.03.272.257-2.882-.218-.569-7.256-6.73.032.985 6.985-7.338-.965.034 12.59 11.503.313-1.183-12.094 2.767-.678.151.31 1.351.678-.154 12.092-2.766.312-1.183-12.593-11.508-.969.033-6.986 7.339.03.985 7.256 6.728-.22-.568-.254 2.882.03.274 1.011 3.154.13.235 3.787 4.475.446.53 1.056-.891z"/>
  <path d="m119.437 496.476-.72 2.155 3.08-1.34zM104.56 455.26l-15.017-13.384-.521-.458-.917 1.032.515.46 15.02 13.38.514.462.923-1.032z"/>
  <path d="m95.25 449.048 2.826 11.672.167.672 1.344-.327-.165-.673-2.827-11.669-.164-.672-1.344.326z"/>
  <path d="m98.775 460.19-1.423 1.58 3.223-.578zm5.028-4.417.368 1.946 1.76-2.71zm-14.3-13.152-2.116.573 1.929-2.513zm-14.548-20.682 12.387-7.236.285-.871-4.98-11.565-.637-.42-7.674-.003-.692-.002-.002 1.381.69.001 7.677.008-.634-.417 4.98 11.564.287-.873-12.388 7.24-.595.346.698 1.199z"/>
  <path d="m84.404 416.637 2.02.91.834-.215 1.549-2.044.13-.31.306-1.898-.292-.68-2.481-1.706-.572-.392-.786 1.14.573.393 2.483 1.706-.29-.68-.308 1.9.134-.308-1.548 2.046.835-.216-2.02-.907-.632-.283-.567 1.262zm-12.712-2.667-4.314-.687.481 1.043 2.562-4.215-1.24-.127 1.75 4.902zm-2.452-4.58-2.56 4.216.481 1.045 4.314.688.758-.918-1.751-4.9zm9.565-30.722-.462-4.287-.66-.618-2.703-.117-.52.2-2.139 2.14.348-.19-1.632.333.498.09-2.888-1.78.296.792 1.026-3.303-.777-.887-1.694.293-.68.12.237 1.362.683-.117 1.692-.295-.778-.888-1.029 3.304.298.796 2.891 1.781.502.088 1.632-.333.35-.187 2.143-2.141-.519.203 2.704.118-.658-.616.462 4.29.076.685 1.377-.148z"/>
  <path d="m68.685 372.421-1.27-1.186.195.33-.906-3.423-.472-.487-1.755-.519-.23-.03-5.361.27.67.415-1.931-4.401-.696-.412-1.366.124-.46.23-.878 1.01-.042.857 3.527 4.9.545.287 5.39.139.213-.027 2.336-.683.664-.196-.388-1.328-.663.192-2.335.684.21-.026-5.39-.138.546.289-3.53-4.9-.04.858.877-1.005-.457.235 1.367-.124-.696-.414 1.927 4.404.668.414 5.363-.27-.235-.027 1.76.517-.476-.488.907 3.428.197.329 1.273 1.183.508.473.94-1.015zm-13.636-34.429 5.2-3.528-.228.101 5.76-1.379-.407-.028 7.292 2.801.915-.82-3.174-12.183-1.163-.314-5.4 5.497.279-.174-5.678 1.877.242-.035-6.282-.212-.683.905 2.28 7.131zm-2.69-7.013 6.28.211.241-.035 5.675-1.876.277-.17 5.399-5.498-1.163-.308 3.176 12.185.914-.82-7.288-2.8-.409-.029-5.76 1.38-.23.1-5.198 3.528 1.05.363-2.28-7.131z"/>
  <path d="m64.581 328.707 1.034 3.355-2.646.815-1.033-3.355zm-9.756 8.252-2.116 1.633 3.14.616zm-2.099-6.431-2.362.036 1.976-2.332zm16.621-6.768-.62-2.44 2.892 1.1zm3.143 11.057-.033 2.161 2.387-1.873zm5.49-47.287-25.239 1.962-.524 1.068 6.98 10.761 1.22-.118 9.337-23.226-1.169.185 8.922 10.505zm-9.51-10.073-9.337 23.23 1.223-.119-6.98-10.762-.528 1.066 25.236-1.962.475-1.139-8.922-10.502zm-3.52-16.979 6.85-3.12.354-.888-3.212-7.978.041.154-1.402-9.139-.376.723 4.987-2.499-.993-.744-2.2 12.145.998.737 3.04-1.594.192-.148 2.712-3.001.144-.243 1.774-5.219.22-.654-1.309-.443-.223.652-1.774 5.218.141-.24-2.712 3.002.193-.147-3.04 1.59 1.003.737 2.205-12.144-.99-.743-4.987 2.501-.376.725 1.404 9.139.042.151 3.21 7.98.357-.888-6.846 3.118-.63.287.572 1.26z"/>
  <path d="m65.011 259.74-1.843-.903 1.1 2.738zm12.12-19.688-1.038-1.876 2.889.94zm21.089-28.2-3.064-.598-.476.078-14.825 8.45.949.272-4.61-8.491-.28.94 14.868-8.045.61-.328-.658-1.216-.61.328-14.868 8.043-.276.94 4.608 8.488.95.274 14.827-8.451-.475.076 3.06.597.684.134.263-1.36z"/>
  <path d="m88.62 201.187 5.948 10.915.331.61 1.216-.664-.33-.607-5.948-10.914-.333-.608-1.214.663z"/>
  <path d="m89.394 201.169-2.557-.356 3.583-1.649zm15.724-31.259-8.2 1.644-.468.347-1.905 3.473.084.788 1.609 1.847.71.213 3.281-.93.482-.835-.396-1.562-.187-.324-2.3-2.264-.494-.487-.972.988.494.484 2.304 2.266-.184-.322.392 1.56.484-.834-3.28.928.711.21-1.611-1.848.084.786 1.907-3.47-.472.342 8.196-1.646.68-.134-.273-1.357z"/>
  <path d="m105.17 170.532 1.761 1.274-.766-2.985zm14.13 2.236-2.208 3.022.724-.266-4.451-1.107-.576.113-.995.728-.282.595.132 2.302.819-.72-2.936-.551-.679-.129-.257 1.358.683.13 2.934.55.818-.718-.131-2.3-.283.597.992-.728-.573.115 4.453 1.108.727-.262 2.203-3.019.407-.56-1.114-.818zm-11.277 4.477-1.29-.89-.726-.037-1.78.981-.352.714.23 1.448.82.57 1.998-.404.42-.262.843-1.136zm-1.375 1.025-1.996.403.82.572-.227-1.448-.35.715 1.779-.98-.728-.037 1.29.89-.16-.982-.845 1.135zm14.936-35.131 7.404-5.008-.469.114 2.9.332-.224-.064 2.817 1.373-.179-.123 5.65 5.427.66.166 2.846-.77.253-.13 4.11-3.335.54-.436-.873-1.075-.537.433-4.112 3.337.255-.13-2.845.77.663.17-5.65-5.427-.175-.12-2.815-1.374-.224-.063-2.901-.337-.468.115-7.403 5.01-.572.388.772 1.144z"/>
  <path d="m121.583 142.308-2.05-.71 1.699 2.894zm24.982-1.575.283-1.9 1.73 2.645zm8.632-29.308 5.854.975-.173-.054 4.309 1.948-.266-.207 2.925 3.804-.117-.233 1.702 6.05.188.667 1.33-.376-.187-.665-1.701-6.051-.118-.233-2.925-3.808-.264-.21-4.308-1.945-.168-.053-5.854-.976-.68-.11-.228 1.364z"/>
  <path d="m176.155 115.33-.62 2.62.556.843 1.516.248.5-.106 2.475-1.669-.155-1.228-3.366-1.197zm3.655.789-2.476 1.669.5-.11-1.516-.25.56.845.624-2.619-.906.49 3.366 1.2zm-24.245-5.378-.92-1.644-.604 2.981zm14.42 12.548-1.32 1.437 3.283-.256zm16.505-33.628 6.98-1.68.672-.165-.325-1.342-.672.16-6.98 1.68-.673.161.327 1.347zm11.09.478 4.033 1.932.622.299.598-1.246-.623-.299-4.032-1.935-.625-.3-.597 1.248z"/>
  <path d="m205.536 95.282 1.343 4.22 1.187.237 2.796-3.294-.376-1.12-4.138-.926zm4.272.271-2.797 3.293 1.186.238-1.343-4.22-.81.886 4.14.923zm-23.2-6.636-2.005-1.25.69 3.133zm6.136-1.47 1.285-1.787.624 3.005zm34.373-17.701 9.67 2.106-.272-.125 6.585 5.063-.12-.115 3.823 4.8-.108-.199 1.025 2.846.236.653 1.301-.47-.236-.652-1.023-2.843-.11-.2-3.827-4.798-.116-.117-6.587-5.068-.273-.127-9.672-2.106-.679-.148-.293 1.353z"/>
  <path d="m227.596 68.957-.954-1.533-.823 3.09zm20.53 14.418-.712 2.316 2.824-1.535zm17.094-20.497 4.228 4.084 1.01-.054 3.103-3.71-.238.182 11.05-5.213-.972-.79-1.017 4.228.027.425 4.03 9.885.162.238 1.774 1.706.437-1.188-2.82.171.641 1.038.999-1.729.346-.601-1.197-.691-.349.6-.998 1.73.641 1.035 2.823-.172.436-1.192-1.773-1.706.16.24-4.028-9.888.033.425 1.023-4.227-.97-.79-11.048 5.216-.234.18-3.103 3.712 1.013-.058-4.226-4.082-.498-.481-.961.994z"/>
  <path d="m272.202 63.961 4.896 9.53.315.618 1.233-.633-.317-.614-4.896-9.535-.316-.612-1.232.631z"/>
</g>
</g>
</svg>